<svg width="10" height="20" viewBox="0 0 10 20" fill="#787A80"
  xmlns="http://www.w3.org/2000/svg">
  <path d="M9.63733 0.836822L7.32294 0.833008C4.72281 0.833008 3.04249 2.60392 3.04249 5.34487V7.42513H0.715477C0.514396 7.42513 0.351562 7.59259 0.351562 7.79915V10.8132C0.351562 11.0198 0.514582 11.187 0.715477 11.187H3.04249V18.7925C3.04249 18.9991 3.20532 19.1663 3.4064 19.1663H6.44249C6.64357 19.1663 6.80641 18.9989 6.80641 18.7925V11.187H9.52723C9.72831 11.187 9.89114 11.0198 9.89114 10.8132L9.89225 7.79915C9.89225 7.69997 9.85382 7.60499 9.78568 7.5348C9.71754 7.46461 9.6247 7.42513 9.52815 7.42513H6.80641V5.66166C6.80641 4.81407 7.00303 4.38379 8.07788 4.38379L9.63696 4.38322C9.83785 4.38322 10.0007 4.21576 10.0007 4.00939V1.21065C10.0007 1.00447 9.83804 0.837204 9.63733 0.836822Z" fill="#787A80"/>
</svg>
